<svg width="32" height="32" viewBox="0 0 32 32" fill="none" xmlns="http://www.w3.org/2000/svg">
<rect x="0.5" y="0.5" width="31" height="31" rx="15.5" stroke="#707070"/>
<path d="M21.8074 10.833H10.474C9.69487 10.833 9.06446 11.4705 9.06446 12.2497L9.05737 20.7497C9.05737 21.5288 9.69487 22.1663 10.474 22.1663H21.8074C22.5865 22.1663 23.224 21.5288 23.224 20.7497V12.2497C23.224 11.4705 22.5865 10.833 21.8074 10.833ZM21.524 13.8434L16.5161 16.9743C16.2895 17.1159 15.992 17.1159 15.7653 16.9743L10.7574 13.8434C10.6863 13.8036 10.6241 13.7497 10.5745 13.6851C10.5249 13.6205 10.489 13.5465 10.4688 13.4676C10.4486 13.3886 10.4446 13.3065 10.4572 13.226C10.4697 13.1455 10.4984 13.0684 10.5415 12.9993C10.5847 12.9302 10.6414 12.8706 10.7083 12.8241C10.7752 12.7776 10.8508 12.7452 10.9306 12.7287C11.0103 12.7123 11.0926 12.7122 11.1724 12.7285C11.2522 12.7447 11.3279 12.7771 11.3949 12.8234L16.1407 15.7913L20.8865 12.8234C20.9535 12.7771 21.0292 12.7447 21.109 12.7285C21.1888 12.7122 21.2711 12.7123 21.3509 12.7287C21.4306 12.7452 21.5062 12.7776 21.5731 12.8241C21.64 12.8706 21.6967 12.9302 21.7399 12.9993C21.7831 13.0684 21.8118 13.1455 21.8243 13.226C21.8368 13.3065 21.8328 13.3886 21.8126 13.4676C21.7925 13.5465 21.7565 13.6205 21.7069 13.6851C21.6573 13.7497 21.5951 13.8036 21.524 13.8434Z" fill="#707070"/>
</svg>
