<svg width="160" height="31" viewBox="0 0 160 31" fill="none" xmlns="http://www.w3.org/2000/svg">
<g clip-path="url(#clip0_2011_3247)">
<path fill-rule="evenodd" clip-rule="evenodd" d="M39.8913 4.61564V16.6591H38.693V6.0684L31.9039 16.6591H30.6887V4.61564H31.8871V14.6058L38.2526 4.61564H39.8913ZM42.3507 4.61564H43.5491V9.91194H49.7553V4.61564H50.9537V16.6591H49.7553V11.0008H43.5491V16.6591H42.3507V4.61564ZM55.0378 5.7045H52.3V4.61564H58.9738V5.7045H56.2361V16.6591H55.0378V5.7045ZM60.3146 4.61564H66.8609V5.7045H61.5139V10.042H66.6829V11.1318H61.5139V15.5693H66.8609V16.6591H60.3146V4.61564ZM77.1757 4.61564V16.6591H75.9773V5.7045H72.2165L69.1883 16.6591H67.9272L71.3283 4.61564H77.1757ZM87.8164 4.61564V16.6591H86.6181V5.7045H82.8582L79.8291 16.6591H78.5679L81.9699 4.61564H87.8164ZM90.2759 4.61564H96.8222V5.7045H91.4742V10.042H96.6433V11.1318H91.4742V15.5693H96.8222V16.6591H90.2759V4.61564ZM98.9547 4.61564H100.153V11.5419L105.676 4.61564H107.199L102.472 10.4851L107.199 16.6591H105.708L101.71 11.4439L100.153 13.3699V16.6591H98.9547V4.61564ZM110.972 5.7045H108.235V4.61564H114.908V5.7045H112.171V16.6591H110.972V5.7045ZM119.022 11.2157V12.3046H114.632V11.2157H119.022ZM124.855 4.61564H126.184L131.315 16.6591H130.02L128.286 12.6176H122.714L120.982 16.6591H119.686L124.855 4.61564ZM127.817 11.5278L125.52 6.00052L123.185 11.5278H127.817ZM132.721 4.61564H135.526C136.104 4.61564 136.609 4.65524 137.04 4.73254C137.474 4.81079 137.877 4.97765 138.247 5.22182C138.679 5.50559 139.025 5.87985 139.276 6.33991C139.528 6.80373 139.656 7.29396 139.656 7.81246C139.656 8.79008 139.214 9.59423 138.331 10.224C138.957 10.4766 139.442 10.8745 139.785 11.4062C140.131 11.9398 140.304 12.5573 140.304 13.2558C140.304 13.8045 140.17 14.3268 139.91 14.8226C139.649 15.3185 139.288 15.7182 138.828 16.0067C138.504 16.2104 138.164 16.3546 137.823 16.447C137.479 16.5403 137.139 16.5988 136.812 16.6186C136.483 16.6374 136.056 16.6591 135.542 16.6591H132.721V4.61564ZM135.397 15.5693C135.966 15.5693 136.451 15.5467 136.846 15.5071C137.242 15.4675 137.605 15.3704 137.923 15.2082C138.265 15.0348 138.544 14.7576 138.763 14.3937C138.981 14.0298 139.089 13.6546 139.089 13.269C139.089 12.7562 138.955 12.3074 138.69 11.9218C138.425 11.5382 138.062 11.2544 137.599 11.0988C137.106 10.9329 136.296 10.8575 135.186 10.8575H133.92V15.5693H135.397ZM135.219 9.7677C135.737 9.7677 136.173 9.74696 136.522 9.70548C136.87 9.66494 137.196 9.56501 137.489 9.40946C137.772 9.25956 138.008 9.02294 138.188 8.71183C138.369 8.3979 138.458 8.06794 138.458 7.72856C138.458 7.4052 138.368 7.08844 138.191 6.78299C138.014 6.47943 137.785 6.23432 137.505 6.06557C137.242 5.90719 136.931 5.8082 136.584 5.76672C136.24 5.72619 135.813 5.7045 135.315 5.7045H133.92V9.7677H135.219ZM143.349 5.7045H140.612V4.61564H147.285V5.7045H144.548V16.6591H143.349V5.7045ZM159.869 10.6124C159.869 11.7484 159.583 12.7977 159.013 13.7583C158.443 14.7218 157.668 15.4807 156.695 16.0369C155.724 16.5922 154.67 16.8703 153.54 16.8703C152.435 16.8703 151.395 16.5922 150.424 16.0426C149.451 15.491 148.672 14.7416 148.091 13.7932C147.511 12.8457 147.22 11.8134 147.22 10.6944C147.22 9.5537 147.506 8.50443 148.073 7.54661C148.639 6.58879 149.411 5.82989 150.384 5.27273C151.356 4.71652 152.408 4.43652 153.54 4.43652C154.651 4.43652 155.695 4.7118 156.668 5.26236C157.641 5.81292 158.42 6.56051 159 7.50796C159.58 8.45635 159.869 9.48865 159.869 10.6124ZM148.418 10.6944C148.418 11.6041 148.657 12.4441 149.128 13.2096C149.601 13.977 150.235 14.586 151.029 15.0376C151.822 15.4882 152.664 15.7135 153.555 15.7135C154.244 15.7135 154.9 15.5834 155.526 15.3195C156.152 15.0564 156.701 14.6907 157.173 14.2221C157.643 13.7555 158.014 13.2096 158.277 12.5903C158.539 11.9699 158.671 11.311 158.671 10.6124C158.671 9.7083 158.435 8.86738 157.967 8.09811C157.498 7.32978 156.868 6.71606 156.077 6.26732C155.287 5.81858 154.447 5.59326 153.555 5.59326C152.864 5.59326 152.204 5.7243 151.582 5.9845C150.956 6.24658 150.405 6.61613 149.93 7.0875C149.454 7.56169 149.079 8.10942 148.816 8.73069C148.552 9.34912 148.418 10.0043 148.418 10.6944Z" fill="#2B2A29"/>
<path fill-rule="evenodd" clip-rule="evenodd" d="M0.131104 9.96378V22.6794C0.131104 24.5969 0.972471 26.292 2.23639 27.262L18.4791 2.18998V0L4.15711 22.0591V3.75209L0.131104 9.96378Z" fill="#C6CC11"/>
<path fill-rule="evenodd" clip-rule="evenodd" d="M20.9849 21.0365V8.32092C20.9849 6.4034 20.1435 4.70836 18.8796 3.73828L2.63599 28.8104V31.0003L16.9589 8.94124V27.2482L20.9849 21.0365Z" fill="#0075B1"/>
<path fill-rule="evenodd" clip-rule="evenodd" d="M11.81 22.3115C13.1339 22.3115 14.2123 23.423 14.2123 24.7871C14.2123 26.1494 13.1339 27.2618 11.81 27.2618C10.4871 27.2618 9.40771 26.1494 9.40771 24.7871C9.40771 23.423 10.4871 22.3115 11.81 22.3115Z" fill="#0075B1"/>
<path d="M30.9221 22.2H31.4515V24.5408H34.192V22.2H34.7223V27.5218H34.192V25.0226H31.4515V27.5218H30.9221V22.2ZM40.67 22.2H41.2584L43.5258 27.5218H42.9533L42.1878 25.7362H39.7256L38.9601 27.5218H38.3876L40.67 22.2ZM41.9798 25.2535L40.9651 22.8118L39.9336 25.2535H41.9798ZM46.925 27.0391L48.2919 22.2H50.8039V27.0391H51.1618V27.5218H46.6458V27.0391H46.925ZM50.2745 27.0391V22.6827H48.6845L47.4834 27.0391H50.2745ZM54.9329 22.2H57.8243V22.6827H55.4623V24.5983H57.7466V25.0801H55.4623V27.0391H57.8243V27.5218H54.9329V22.2ZM63.92 24.9792L61.9656 27.5218H61.3097L63.3981 24.7935L61.3097 22.2H61.9815C62.063 22.3009 62.1923 22.4621 62.3685 22.6818C62.5455 22.9024 62.7442 23.1522 62.9662 23.4303C63.1883 23.7084 63.4028 23.978 63.609 24.2382C63.817 24.4993 63.92 24.6313 63.92 24.6351V22.2H64.4503V24.6257L66.3907 22.2H67.0634L64.9722 24.7935L67.0634 27.5218H66.4038L64.4503 24.9792V27.5218H63.92V24.9792ZM70.6903 22.2H71.2197V24.5408H73.9611V22.2H74.4905V27.5218H73.9611V25.0226H71.2197V27.5218H70.6903V22.2ZM78.6215 27.5218V22.2H79.1508V24.3457H80.1468C80.4372 24.3457 80.693 24.3683 80.9132 24.4154C81.1334 24.4607 81.3358 24.554 81.5194 24.6907C81.9204 24.9849 82.1209 25.3959 82.1209 25.9229C82.1209 26.1944 82.0609 26.4452 81.9401 26.6752C81.8211 26.9071 81.6496 27.0928 81.4266 27.2333C81.2927 27.3191 81.1512 27.3822 80.9994 27.4228C80.8495 27.4643 80.6968 27.4906 80.5422 27.501C80.3885 27.5123 80.2124 27.5189 80.0109 27.5218H78.6215ZM82.8573 22.2H83.3876V27.5218H82.8573V22.2ZM80.0606 24.8284H79.1508V27.0391H79.832C79.8685 27.0391 79.9285 27.04 80.0081 27.0429C80.0878 27.0447 80.1487 27.0466 80.188 27.0466C80.4916 27.0466 80.7389 27.0051 80.9329 26.9222C81.1399 26.8373 81.3011 26.7082 81.4173 26.5347C81.5325 26.3613 81.5906 26.1595 81.5906 25.9304C81.5906 25.7513 81.5503 25.5807 81.4679 25.4213C81.3873 25.262 81.272 25.1357 81.1259 25.0442C80.9853 24.9547 80.8317 24.8953 80.663 24.8689C80.4935 24.8416 80.2929 24.8284 80.0606 24.8284ZM87.5176 22.2H90.409V22.6827H88.047V24.5983H90.3313V25.0801H88.047V27.0391H90.409V27.5218H87.5176V22.2ZM101.702 24.9726V24.4824H102.338C102.519 24.4824 102.688 24.4484 102.842 24.3787C102.998 24.3089 103.121 24.2033 103.214 24.0629C103.308 23.9233 103.354 23.7527 103.354 23.5538C103.354 23.3869 103.313 23.2323 103.234 23.0909C103.153 22.9476 103.043 22.8354 102.903 22.7515C102.763 22.6667 102.611 22.6252 102.444 22.6252C102.265 22.6252 102.104 22.6648 101.963 22.743C101.823 22.8222 101.71 22.9306 101.626 23.073C101.541 23.2144 101.492 23.3737 101.48 23.5538H100.928C100.928 23.2879 100.993 23.0447 101.122 22.8241C101.252 22.6035 101.429 22.431 101.652 22.3037C101.875 22.1774 102.118 22.1133 102.38 22.1133C102.658 22.1133 102.909 22.1736 103.138 22.2933C103.367 22.414 103.549 22.5828 103.683 22.8005C103.817 23.0174 103.883 23.2672 103.883 23.5462C103.883 23.9563 103.736 24.2872 103.44 24.5408C103.379 24.5964 103.293 24.654 103.181 24.7143C103.313 24.7756 103.428 24.8529 103.524 24.9453C103.681 25.0791 103.803 25.246 103.89 25.444C103.977 25.6419 104.02 25.8475 104.02 26.0615C104.02 26.3471 103.946 26.6082 103.798 26.8468C103.65 27.0843 103.453 27.2719 103.206 27.4096C102.959 27.5472 102.693 27.6151 102.409 27.6151C102.112 27.6151 101.838 27.5482 101.588 27.4133C101.336 27.2776 101.137 27.09 100.99 26.8468C100.843 26.6045 100.771 26.332 100.771 26.0313H101.336C101.342 26.2255 101.392 26.4046 101.484 26.5677C101.576 26.7308 101.703 26.86 101.864 26.9571C102.024 27.0551 102.201 27.1041 102.395 27.1041C102.596 27.1041 102.779 27.0598 102.945 26.9693C103.112 26.8798 103.244 26.7544 103.342 26.5922C103.441 26.432 103.49 26.2519 103.49 26.053C103.49 25.8578 103.441 25.6768 103.344 25.51C103.247 25.344 103.116 25.2121 102.95 25.1168C102.784 25.0207 102.603 24.9726 102.409 24.9726H101.702ZM109.725 22.2H110.312L112.58 27.5218H112.007L111.242 25.7362H108.78L108.014 27.5218H107.442L109.725 22.2ZM111.034 25.2535L110.019 22.8118L108.987 25.2535H111.034ZM116.244 22.2H120.044V27.5218H119.515V22.6827H116.773V27.5218H116.244V22.2ZM123.981 22.2H124.511V24.1807C124.511 24.3626 124.554 24.522 124.638 24.6568C124.723 24.7925 124.84 24.8953 124.988 24.9669C125.136 25.0376 125.3 25.0735 125.477 25.0735C126.053 25.0735 126.578 24.8906 127.052 24.5257V22.2H127.581V27.5218H127.052V25.0386C126.505 25.3968 125.944 25.5769 125.369 25.5769C125.182 25.5769 125.006 25.5477 124.841 25.4864C124.676 25.4251 124.528 25.3346 124.396 25.2177C124.265 25.0989 124.164 24.9585 124.091 24.7935C124.019 24.6304 123.981 24.4503 123.981 24.2524V22.2ZM133.521 22.2H134.109L136.376 27.5218H135.804L135.038 25.7362H132.577L131.81 27.5218H131.238L133.521 22.2ZM134.831 25.2535L133.815 22.8118L132.784 25.2535H134.831ZM144.133 23.5679C144.004 23.3718 143.841 23.2012 143.641 23.0579C143.443 22.9165 143.228 22.809 142.994 22.7355C142.76 22.662 142.524 22.6252 142.286 22.6252C141.896 22.6252 141.531 22.7279 141.19 22.9335C140.851 23.1399 140.578 23.4133 140.377 23.7565C140.175 24.0996 140.075 24.4607 140.075 24.8425C140.075 25.2469 140.178 25.6231 140.384 25.971C140.589 26.3179 140.866 26.5941 141.213 26.7977C141.56 27.0014 141.93 27.1041 142.322 27.1041C142.676 27.1041 143.019 27.0155 143.347 26.8383C143.676 26.661 143.945 26.4254 144.154 26.1322H144.741C144.588 26.4254 144.387 26.6846 144.134 26.908C143.883 27.1324 143.6 27.3059 143.286 27.4294C142.972 27.5529 142.652 27.6151 142.322 27.6151C141.94 27.6151 141.582 27.5453 141.244 27.4067C140.906 27.2663 140.609 27.0702 140.353 26.8185C140.097 26.5649 139.9 26.2689 139.757 25.9276C139.616 25.5882 139.546 25.2253 139.546 24.8425C139.546 24.3495 139.668 23.8932 139.914 23.4746C140.159 23.056 140.493 22.7242 140.911 22.48C141.33 22.2358 141.787 22.1133 142.28 22.1133C142.852 22.1133 143.36 22.2622 143.804 22.5601C143.99 22.6789 144.173 22.8316 144.352 23.0174C144.531 23.205 144.654 23.3879 144.721 23.5679H144.133ZM148.956 22.6827H147.747V22.2H150.695V22.6827H149.486V27.5218H148.956V22.6827ZM158.396 22.2V27.5218H157.866V22.842L154.867 27.5218H154.33V22.2H154.861V26.6139L157.672 22.2H158.396Z" fill="#0075B1"/>
</g>
<defs>
<clipPath id="clip0_2011_3247">
<rect width="160" height="31" fill="white"/>
</clipPath>
</defs>
</svg>
