<svg width="36" height="36" viewBox="0 0 36 36" fill="none" xmlns="http://www.w3.org/2000/svg">
<path d="M24.3333 25.5L19.0833 20.25C18.6667 20.5833 18.1875 20.8472 17.6458 21.0417C17.1042 21.2361 16.5278 21.3333 15.9167 21.3333C14.4028 21.3333 13.1215 20.809 12.0729 19.7604C11.0243 18.7118 10.5 17.4306 10.5 15.9167C10.5 14.4028 11.0243 13.1215 12.0729 12.0729C13.1215 11.0243 14.4028 10.5 15.9167 10.5C17.4306 10.5 18.7118 11.0243 19.7604 12.0729C20.809 13.1215 21.3333 14.4028 21.3333 15.9167C21.3333 16.5278 21.2361 17.1042 21.0417 17.6458C20.8472 18.1875 20.5833 18.6667 20.25 19.0833L25.5 24.3333L24.3333 25.5ZM15.9167 19.6667C16.9583 19.6667 17.8437 19.3021 18.5729 18.5729C19.3021 17.8437 19.6667 16.9583 19.6667 15.9167C19.6667 14.875 19.3021 13.9896 18.5729 13.2604C17.8437 12.5312 16.9583 12.1667 15.9167 12.1667C14.875 12.1667 13.9896 12.5312 13.2604 13.2604C12.5312 13.9896 12.1667 14.875 12.1667 15.9167C12.1667 16.9583 12.5312 17.8437 13.2604 18.5729C13.9896 19.3021 14.875 19.6667 15.9167 19.6667Z" fill="#707070"/>
</svg>
